<?xml version="1.0" encoding="UTF-8"?>
<!DOCTYPE svg PUBLIC "-//W3C//DTD SVG 1.1//EN" "http://www.w3.org/Graphics/SVG/1.1/DTD/svg11.dtd">
<svg xmlns="http://www.w3.org/2000/svg" version="1.1" width="1312px" height="1323px" style="shape-rendering:geometricPrecision; text-rendering:geometricPrecision; image-rendering:optimizeQuality; fill-rule:evenodd; clip-rule:evenodd" xmlns:xlink="http://www.w3.org/1999/xlink">
<g><path style="opacity:0.929" fill="#fefffe" d="M 270.5,10.5 C 281.562,10.388 289.395,15.388 294,25.5C 296.919,42.0914 290.086,52.0914 273.5,55.5C 260.739,53.2388 253.072,45.7388 250.5,33C 252.092,24.9769 256.092,18.4769 262.5,13.5C 265.194,12.2465 267.861,11.2465 270.5,10.5 Z"/></g>
<g><path style="opacity:0.008" fill="#fefffe" d="M 251.5,15.5 C 253.337,15.6395 253.67,16.3061 252.5,17.5C 251.702,17.0431 251.369,16.3764 251.5,15.5 Z"/></g>
<g><path style="opacity:0.016" fill="#fefffe" d="M 291.5,15.5 C 292.675,15.281 293.675,15.6143 294.5,16.5C 292.948,17.7979 291.948,17.4646 291.5,15.5 Z"/></g>
<g><path style="opacity:0.008" fill="#fefffe" d="M 249.5,45.5 C 251.337,45.6395 251.67,46.3061 250.5,47.5C 249.702,47.0431 249.369,46.3764 249.5,45.5 Z"/></g>
<g><path style="opacity:0.004" fill="#fefffe" d="M 295.5,45.5 C 297.337,45.6395 297.67,46.3061 296.5,47.5C 295.702,47.0431 295.369,46.3764 295.5,45.5 Z"/></g>
<g><path style="opacity:0.916" fill="#fefffe" d="M 489.5,65.5 C 506.277,66.1091 514.11,74.7757 513,91.5C 509.672,103.495 501.838,108.661 489.5,107C 475.124,100.738 470.79,90.2379 476.5,75.5C 477.5,74.1667 478.5,72.8333 479.5,71.5C 482.888,69.4595 486.222,67.4595 489.5,65.5 Z"/></g>
<g><path style="opacity:0.958" fill="#fefffe" d="M 590.5,137.5 C 617.245,140.082 629.078,154.749 626,181.5C 618.414,200.882 604.247,208.716 583.5,205C 561.085,193.258 555.085,175.758 565.5,152.5C 569.368,148.795 573.368,145.295 577.5,142C 581.927,140.43 586.26,138.93 590.5,137.5 Z"/></g>
<g><path style="opacity:0.934" fill="#fefffe" d="M 322.5,145.5 C 338.928,145.122 347.095,153.122 347,169.5C 342.173,183.898 332.506,188.565 318,183.5C 307.296,176.474 304.629,167.141 310,155.5C 313.191,150.837 317.358,147.503 322.5,145.5 Z"/></g>
<g><path style="opacity:0.935" fill="#fefffe" d="M 441.5,153.5 C 460.361,153.547 468.194,162.881 465,181.5C 458.23,194.09 448.396,197.257 435.5,191C 425.472,181.516 424.305,171.016 432,159.5C 435.361,157.606 438.527,155.606 441.5,153.5 Z"/></g>
<g><path style="opacity:0.934" fill="#fefffe" d="M 199.5,173.5 C 217.061,171.895 225.894,179.895 226,197.5C 222.243,210.555 213.743,215.721 200.5,213C 191.207,209.797 186.541,203.131 186.5,193C 187.15,183.882 191.483,177.382 199.5,173.5 Z"/></g>
<g><path style="opacity:0.004" fill="#fefffe" d="M 185.5,205.5 C 187.337,205.639 187.67,206.306 186.5,207.5C 185.702,207.043 185.369,206.376 185.5,205.5 Z"/></g>
<g><path style="opacity:0.02" fill="#fefffe" d="M 225.5,205.5 C 227.337,205.639 227.67,206.306 226.5,207.5C 225.702,207.043 225.369,206.376 225.5,205.5 Z"/></g>
<g><path style="opacity:0.988" fill="#fefffe" d="M 607.5,243.5 C 639.564,239.614 662.397,252.28 676,281.5C 677.842,288.041 679.175,294.708 680,301.5C 681.5,303.333 683,305.167 684.5,307C 819.555,330.779 916.388,404.946 975,529.5C 995.869,581.038 1005.87,634.705 1005,690.5C 1002.05,746.959 987.887,800.292 962.5,850.5C 957.181,859.801 951.847,869.135 946.5,878.5C 945.675,879.386 944.675,879.719 943.5,879.5C 941.35,884.683 938.684,889.683 935.5,894.5C 934.675,895.386 933.675,895.719 932.5,895.5C 932.643,897.262 932.309,898.929 931.5,900.5C 862.506,988.057 772.839,1037.56 662.5,1049C 556.662,1055.38 463.662,1024.21 383.5,955.5C 319.656,896.165 279.49,823.498 263,737.5C 261.307,735.973 259.473,734.64 257.5,733.5C 227.374,731.547 207.541,716.214 198,687.5C 193.207,652.584 207.374,628.75 240.5,616C 251.41,614.169 262.41,612.836 273.5,612C 302.033,602.46 319.867,582.96 327,553.5C 332.044,531.051 327.877,510.718 314.5,492.5C 288.685,470.868 276.519,443.201 278,409.5C 284.798,370.376 306.965,344.542 344.5,332C 384.828,323.517 417.161,335.684 441.5,368.5C 458.536,387.598 479.87,396.432 505.5,395C 538.63,387.585 557.796,367.085 563,333.5C 563.06,319.499 563.06,305.499 563,291.5C 564.152,283.237 566.985,275.571 571.5,268.5C 580.884,256.071 592.884,247.738 607.5,243.5 Z M 628.5,455.5 C 674.343,452.129 718.676,458.629 761.5,475C 783.126,484.642 802.126,497.975 818.5,515C 806.618,544.31 796.118,574.144 787,604.5C 761.353,569.084 726.52,549.918 682.5,547C 634.044,543.031 593.544,558.865 561,594.5C 535.531,630.036 525.198,669.703 530,713.5C 531.246,730.065 534.913,746.065 541,761.5C 541.368,762.91 542.201,763.91 543.5,764.5C 543.149,726.045 554.982,692.045 579,662.5C 610.521,631.105 648.355,618.939 692.5,626C 706.441,628.645 719.441,633.645 731.5,641C 734.473,643.728 737.306,646.561 740,649.5C 740.667,685.167 740.667,720.833 740,756.5C 720.908,741.709 699.408,731.875 675.5,727C 644.883,721.508 614.883,723.841 585.5,734C 557.915,745.669 549.415,765.502 560,793.5C 588.745,827.102 625.411,843.769 670,843.5C 713.863,843.559 750.53,827.559 780,795.5C 782.723,792.443 785.056,789.11 787,785.5C 796.122,815.867 806.622,845.701 818.5,875C 794.778,899.871 766.112,916.538 732.5,925C 682.89,938.206 633.224,938.54 583.5,926C 514.486,903.983 466.319,859.483 439,792.5C 418.389,734.907 416.056,676.573 432,617.5C 463.679,522.309 529.179,468.309 628.5,455.5 Z"/></g>
<g><path style="opacity:0.953" fill="#fefffe" d="M 271.5,265.5 C 292.681,267.681 304.681,279.348 307.5,300.5C 307.017,314.475 300.683,324.808 288.5,331.5C 266.874,338.787 251.041,332.12 241,311.5C 236.471,286.189 246.637,270.855 271.5,265.5 Z"/></g>
<g><path style="opacity:0.964" fill="#fefffe" d="M 482.5,273.5 C 518.004,270.659 538.004,286.992 542.5,322.5C 536.867,357.959 516.2,373.459 480.5,369C 455.492,358.975 443.992,340.475 446,313.5C 450.794,293.215 462.961,279.882 482.5,273.5 Z"/></g>
<g><path style="opacity:0.004" fill="#fefffe" d="M 311.5,287.5 C 313.337,287.639 313.67,288.306 312.5,289.5C 311.702,289.043 311.369,288.376 311.5,287.5 Z"/></g>
<g><path style="opacity:0.014" fill="#fefffe" d="M 143.5,297.5 C 144.675,297.281 145.675,297.614 146.5,298.5C 144.948,299.798 143.948,299.465 143.5,297.5 Z"/></g>
<g><path style="opacity:0.926" fill="#fefffe" d="M 143.5,301.5 C 161.457,300.041 170.291,308.375 170,326.5C 163.527,341.715 153.027,345.882 138.5,339C 129.303,331.042 127.303,321.542 132.5,310.5C 135.799,306.732 139.465,303.732 143.5,301.5 Z"/></g>
<g><path style="opacity:0.008" fill="#fefffe" d="M 259.5,333.5 C 261.337,333.639 261.67,334.306 260.5,335.5C 259.702,335.043 259.369,334.376 259.5,333.5 Z"/></g>
<g><path style="opacity:0.004" fill="#fefffe" d="M 165.5,339.5 C 167.337,339.639 167.67,340.306 166.5,341.5C 165.702,341.043 165.369,340.376 165.5,339.5 Z"/></g>
<g><path style="opacity:0.004" fill="#fefffe" d="M 297.5,351.5 C 298.525,351.897 298.692,352.563 298,353.5C 297.536,352.906 297.369,352.239 297.5,351.5 Z"/></g>
<g><path style="opacity:0.95" fill="#fefffe" d="M 124.5,437.5 C 144.295,437.776 156.795,447.442 162,466.5C 163.491,474.993 162.157,482.993 158,490.5C 144.322,508.019 127.822,511.186 108.5,500C 96.414,489.848 92.2473,477.015 96,461.5C 101.796,448.853 111.296,440.853 124.5,437.5 Z"/></g>
<g><path style="opacity:0.004" fill="#fefffe" d="M 85.5,463.5 C 87.337,463.639 87.6704,464.306 86.5,465.5C 85.7025,465.043 85.3691,464.376 85.5,463.5 Z"/></g>
<g><path style="opacity:0.004" fill="#fefffe" d="M 91.5,477.5 C 93.337,477.639 93.6704,478.306 92.5,479.5C 91.7025,479.043 91.3691,478.376 91.5,477.5 Z"/></g>
<g><path style="opacity:0.008" fill="#fefffe" d="M 297.5,479.5 C 299.337,479.639 299.67,480.306 298.5,481.5C 297.702,481.043 297.369,480.376 297.5,479.5 Z"/></g>
<g><path style="opacity:0.966" fill="#fefffe" d="M 244.5,487.5 C 272.235,485.435 290.735,497.435 300,523.5C 305.319,553.389 293.819,573.223 265.5,583C 238.114,587.556 218.947,577.056 208,551.5C 201.3,519.219 213.467,497.886 244.5,487.5 Z"/></g>
<g><path style="opacity:0.014" fill="#fefffe" d="M 217.5,499.5 C 217.639,497.663 218.306,497.33 219.5,498.5C 219.043,499.298 218.376,499.631 217.5,499.5 Z"/></g>
<g><path style="opacity:0.004" fill="#fefffe" d="M 217.5,499.5 C 218.376,499.631 219.043,499.298 219.5,498.5C 218.306,497.33 217.639,497.663 217.5,499.5 Z"/></g>
<g><path style="opacity:0.008" fill="#fefffe" d="M 313.5,505.5 C 315.337,505.639 315.67,506.306 314.5,507.5C 313.702,507.043 313.369,506.376 313.5,505.5 Z"/></g>
<g><path style="opacity:0.004" fill="#fefffe" d="M 215.5,623.5 C 217.337,623.639 217.67,624.306 216.5,625.5C 215.702,625.043 215.369,624.376 215.5,623.5 Z"/></g>
</svg>
